# MagicaVoxel @ Ephtracy

# group
o 

# material
mtllib bus.mtl
usemtl palette

# normals
vn -1 0 0
vn 1 0 0
vn 0 0 1
vn 0 0 -1
vn 0 -1 0
vn 0 1 0

# texcoords
vt 0.0214844 0.5
vt 0.306641 0.5
vt 0.310547 0.5
vt 0.958984 0.5
vt 0.994141 0.5

# verts
v 0 2.2 0
v 0 2.2 -0.7
v 0 2.3 -0.1
v 0 2.3 -0.6
v 0 2.4 -0.1
v 0 2.4 -0.6
v 0 2.5 0
v 0 2.5 -0.7
v 0.1 2 0
v 0.1 2 -0.2
v 0.1 2 -0.5
v 0.1 2 -0.7
v 0.1 2.2 0
v 0.1 2.2 -0.2
v 0.1 2.2 -0.5
v 0.1 2.2 -0.7
v 0.2 2.1 -0.2
v 0.2 2.1 -0.5
v 0.2 2.2 -0.2
v 0.2 2.2 -0.5
v 0.3 2.5 0
v 0.3 2.5 -0.1
v 0.3 2.5 -0.6
v 0.3 2.5 -0.7
v 0.3 2.7 -0.1
v 0.3 2.7 -0.6
v 0.3 2.8 0
v 0.3 2.8 -0.7
v 1 2 0
v 1 2 -0.2
v 1 2 -0.5
v 1 2 -0.7
v 1 2.2 0
v 1 2.2 -0.2
v 1 2.2 -0.5
v 1 2.2 -0.7
v 1.1 2.1 -0.2
v 1.1 2.1 -0.3
v 1.1 2.1 -0.4
v 1.1 2.1 -0.5
v 1.1 2.2 -0.2
v 1.1 2.2 -0.3
v 1.1 2.2 -0.4
v 1.1 2.2 -0.5
v 0.3 2.1 -0.2
v 0.3 2.1 -0.3
v 0.3 2.1 -0.4
v 0.3 2.1 -0.5
v 0.3 2.2 -0.2
v 0.3 2.2 -0.3
v 0.3 2.2 -0.4
v 0.3 2.2 -0.5
v 0.4 2 0
v 0.4 2 -0.2
v 0.4 2 -0.5
v 0.4 2 -0.7
v 0.4 2.2 0
v 0.4 2.2 -0.2
v 0.4 2.2 -0.5
v 0.4 2.2 -0.7
v 1.2 2.1 -0.2
v 1.2 2.1 -0.5
v 1.2 2.2 -0.2
v 1.2 2.2 -0.5
v 1.3 2 0
v 1.3 2 -0.2
v 1.3 2 -0.5
v 1.3 2 -0.7
v 1.3 2.2 0
v 1.3 2.2 -0.2
v 1.3 2.2 -0.5
v 1.3 2.2 -0.7
v 1.4 2.2 0
v 1.4 2.2 -0.7
v 1.4 2.5 -0.1
v 1.4 2.5 -0.6
v 1.4 2.7 -0.1
v 1.4 2.7 -0.6
v 1.4 2.8 0
v 1.4 2.8 -0.7
v 0 2.2 0
v 0 2.5 0
v 0.1 2 0
v 0.1 2.2 0
v 0.1 2.3 0
v 0.2 2.1 0
v 0.2 2.2 0
v 0.3 2.1 0
v 0.3 2.2 0
v 0.3 2.5 0
v 0.3 2.8 0
v 0.4 2 0
v 0.4 2.2 0
v 0.4 2.3 0
v 0.4 2.5 0
v 0.4 2.7 0
v 0.6 2.5 0
v 0.6 2.7 0
v 0.8 2.5 0
v 0.8 2.7 0
v 1 2 0
v 1 2.2 0
v 1 2.3 0
v 1 2.5 0
v 1 2.7 0
v 1.1 2.1 0
v 1.1 2.2 0
v 1.1 2.5 0
v 1.1 2.7 0
v 1.2 2.1 0
v 1.2 2.2 0
v 1.3 2 0
v 1.3 2.2 0
v 1.3 2.3 0
v 1.3 2.5 0
v 1.3 2.7 0
v 1.4 2.2 0
v 1.4 2.8 0
v 0.3 2.1 -0.3
v 0.3 2.2 -0.3
v 1.1 2.1 -0.3
v 1.1 2.2 -0.3
v 0.1 2 -0.5
v 0.1 2.2 -0.5
v 0.2 2.1 -0.5
v 0.2 2.2 -0.5
v 0.3 2.1 -0.5
v 0.3 2.2 -0.5
v 0.4 2 -0.5
v 0.4 2.2 -0.5
v 1 2 -0.5
v 1 2.2 -0.5
v 1.1 2.1 -0.5
v 1.1 2.2 -0.5
v 1.2 2.1 -0.5
v 1.2 2.2 -0.5
v 1.3 2 -0.5
v 1.3 2.2 -0.5
v 0.1 2 -0.2
v 0.1 2.2 -0.2
v 0.2 2.1 -0.2
v 0.2 2.2 -0.2
v 0.3 2.1 -0.2
v 0.3 2.2 -0.2
v 0.4 2 -0.2
v 0.4 2.2 -0.2
v 1 2 -0.2
v 1 2.2 -0.2
v 1.1 2.1 -0.2
v 1.1 2.2 -0.2
v 1.2 2.1 -0.2
v 1.2 2.2 -0.2
v 1.3 2 -0.2
v 1.3 2.2 -0.2
v 0.3 2.1 -0.4
v 0.3 2.2 -0.4
v 1.1 2.1 -0.4
v 1.1 2.2 -0.4
v 0 2.2 -0.7
v 0 2.5 -0.7
v 0.1 2 -0.7
v 0.1 2.2 -0.7
v 0.1 2.3 -0.7
v 0.2 2.1 -0.7
v 0.2 2.2 -0.7
v 0.3 2.1 -0.7
v 0.3 2.2 -0.7
v 0.3 2.5 -0.7
v 0.3 2.8 -0.7
v 0.4 2 -0.7
v 0.4 2.2 -0.7
v 0.4 2.3 -0.7
v 0.4 2.5 -0.7
v 0.4 2.7 -0.7
v 0.6 2.3 -0.7
v 0.6 2.5 -0.7
v 0.6 2.7 -0.7
v 0.8 2.5 -0.7
v 0.8 2.7 -0.7
v 1 2 -0.7
v 1 2.2 -0.7
v 1 2.3 -0.7
v 1 2.5 -0.7
v 1 2.7 -0.7
v 1.1 2.1 -0.7
v 1.1 2.2 -0.7
v 1.1 2.5 -0.7
v 1.1 2.7 -0.7
v 1.2 2.1 -0.7
v 1.2 2.2 -0.7
v 1.3 2 -0.7
v 1.3 2.2 -0.7
v 1.3 2.3 -0.7
v 1.3 2.5 -0.7
v 1.3 2.7 -0.7
v 1.4 2.2 -0.7
v 1.4 2.8 -0.7
v 0.1 2 0
v 0.4 2 0
v 1 2 0
v 1.3 2 0
v 0.1 2 -0.2
v 0.4 2 -0.2
v 1 2 -0.2
v 1.3 2 -0.2
v 0.1 2 -0.5
v 0.4 2 -0.5
v 1 2 -0.5
v 1.3 2 -0.5
v 0.1 2 -0.7
v 0.4 2 -0.7
v 1 2 -0.7
v 1.3 2 -0.7
v 0.2 2.1 -0.2
v 0.3 2.1 -0.2
v 1.1 2.1 -0.2
v 1.2 2.1 -0.2
v 0.3 2.1 -0.3
v 1.1 2.1 -0.3
v 0.3 2.1 -0.4
v 1.1 2.1 -0.4
v 0.2 2.1 -0.5
v 0.3 2.1 -0.5
v 1.1 2.1 -0.5
v 1.2 2.1 -0.5
v 0 2.2 0
v 0.1 2.2 0
v 0.4 2.2 0
v 1 2.2 0
v 1.3 2.2 0
v 1.4 2.2 0
v 0.1 2.2 -0.2
v 0.2 2.2 -0.2
v 0.3 2.2 -0.2
v 0.4 2.2 -0.2
v 1 2.2 -0.2
v 1.1 2.2 -0.2
v 1.2 2.2 -0.2
v 1.3 2.2 -0.2
v 0.3 2.2 -0.3
v 1.1 2.2 -0.3
v 0.3 2.2 -0.4
v 1.1 2.2 -0.4
v 0.1 2.2 -0.5
v 0.2 2.2 -0.5
v 0.3 2.2 -0.5
v 0.4 2.2 -0.5
v 1 2.2 -0.5
v 1.1 2.2 -0.5
v 1.2 2.2 -0.5
v 1.3 2.2 -0.5
v 0 2.2 -0.7
v 0.1 2.2 -0.7
v 0.4 2.2 -0.7
v 1 2.2 -0.7
v 1.3 2.2 -0.7
v 1.4 2.2 -0.7
v 0 2.5 0
v 0.3 2.5 0
v 0.3 2.5 -0.1
v 0.3 2.5 -0.6
v 0 2.5 -0.7
v 0.3 2.5 -0.7
v 0.3 2.8 0
v 1.4 2.8 0
v 0.3 2.8 -0.7
v 1.4 2.8 -0.7

# faces
f 3/1/1 2/1/1 1/1/1
f 4/1/1 2/1/1 3/1/1
f 5/1/1 3/1/1 1/1/1
f 5/5/1 4/5/1 3/5/1
f 6/1/1 2/1/1 4/1/1
f 6/5/1 4/5/1 5/5/1
f 7/1/1 5/1/1 1/1/1
f 7/1/1 6/1/1 5/1/1
f 8/1/1 2/1/1 6/1/1
f 8/1/1 6/1/1 7/1/1
f 13/5/1 10/5/1 9/5/1
f 14/5/1 10/5/1 13/5/1
f 15/5/1 12/5/1 11/5/1
f 16/5/1 12/5/1 15/5/1
f 19/5/1 18/5/1 17/5/1
f 20/5/1 18/5/1 19/5/1
f 25/1/1 22/1/1 21/1/1
f 25/3/1 23/3/1 22/3/1
f 26/1/1 24/1/1 23/1/1
f 26/3/1 23/3/1 25/3/1
f 27/1/1 25/1/1 21/1/1
f 27/1/1 26/1/1 25/1/1
f 28/1/1 24/1/1 26/1/1
f 28/1/1 26/1/1 27/1/1
f 33/5/1 30/5/1 29/5/1
f 34/5/1 30/5/1 33/5/1
f 35/5/1 32/5/1 31/5/1
f 36/5/1 32/5/1 35/5/1
f 41/5/1 38/5/1 37/5/1
f 42/5/1 38/5/1 41/5/1
f 43/5/1 40/5/1 39/5/1
f 44/5/1 40/5/1 43/5/1
f 45/5/2 46/5/2 49/5/2
f 49/5/2 46/5/2 50/5/2
f 47/5/2 48/5/2 51/5/2
f 51/5/2 48/5/2 52/5/2
f 53/5/2 54/5/2 57/5/2
f 57/5/2 54/5/2 58/5/2
f 55/5/2 56/5/2 59/5/2
f 59/5/2 56/5/2 60/5/2
f 61/5/2 62/5/2 63/5/2
f 63/5/2 62/5/2 64/5/2
f 65/5/2 66/5/2 69/5/2
f 69/5/2 66/5/2 70/5/2
f 67/5/2 68/5/2 71/5/2
f 71/5/2 68/5/2 72/5/2
f 73/1/2 74/1/2 75/1/2
f 75/1/2 74/1/2 76/1/2
f 73/1/2 75/1/2 77/1/2
f 75/3/2 76/3/2 77/3/2
f 76/1/2 74/1/2 78/1/2
f 77/3/2 76/3/2 78/3/2
f 73/1/2 77/1/2 79/1/2
f 77/1/2 78/1/2 79/1/2
f 78/1/2 74/1/2 80/1/2
f 79/1/2 78/1/2 80/1/2
f 84/1/3 82/1/3 81/1/3
f 85/1/3 82/1/3 84/1/3
f 86/5/3 84/5/3 83/5/3
f 86/5/3 85/5/3 84/5/3
f 87/5/3 85/5/3 86/5/3
f 88/5/3 86/5/3 83/5/3
f 88/4/3 87/4/3 86/4/3
f 89/5/3 85/5/3 87/5/3
f 89/4/3 87/4/3 88/4/3
f 90/1/3 82/1/3 85/1/3
f 92/5/3 88/5/3 83/5/3
f 92/5/3 89/5/3 88/5/3
f 93/5/3 85/5/3 89/5/3
f 93/5/3 89/5/3 92/5/3
f 94/1/3 91/1/3 90/1/3
f 94/5/3 85/5/3 93/5/3
f 94/1/3 90/1/3 85/1/3
f 95/1/3 91/1/3 94/1/3
f 96/1/3 91/1/3 95/1/3
f 97/1/3 94/1/3 93/1/3
f 97/3/3 96/3/3 95/3/3
f 97/1/3 95/1/3 94/1/3
f 98/1/3 91/1/3 96/1/3
f 98/3/3 96/3/3 97/3/3
f 99/1/3 97/1/3 93/1/3
f 99/1/3 98/1/3 97/1/3
f 100/1/3 91/1/3 98/1/3
f 100/1/3 98/1/3 99/1/3
f 102/1/3 99/1/3 93/1/3
f 103/1/3 99/1/3 102/1/3
f 104/3/3 100/3/3 99/3/3
f 104/1/3 99/1/3 103/1/3
f 105/1/3 91/1/3 100/1/3
f 105/3/3 100/3/3 104/3/3
f 106/5/3 103/5/3 102/5/3
f 106/5/3 102/5/3 101/5/3
f 107/5/3 103/5/3 106/5/3
f 108/1/3 104/1/3 103/1/3
f 108/1/3 105/1/3 104/1/3
f 109/1/3 91/1/3 105/1/3
f 109/1/3 105/1/3 108/1/3
f 110/4/3 107/4/3 106/4/3
f 110/5/3 106/5/3 101/5/3
f 111/5/3 103/5/3 107/5/3
f 111/4/3 107/4/3 110/4/3
f 112/5/3 110/5/3 101/5/3
f 112/5/3 111/5/3 110/5/3
f 113/5/3 103/5/3 111/5/3
f 113/5/3 111/5/3 112/5/3
f 114/1/3 108/1/3 103/1/3
f 114/5/3 103/5/3 113/5/3
f 115/3/3 109/3/3 108/3/3
f 115/1/3 108/1/3 114/1/3
f 116/1/3 91/1/3 109/1/3
f 116/3/3 109/3/3 115/3/3
f 117/1/3 115/1/3 114/1/3
f 117/1/3 116/1/3 115/1/3
f 117/1/3 114/1/3 113/1/3
f 118/1/3 91/1/3 116/1/3
f 118/1/3 116/1/3 117/1/3
f 121/5/3 120/5/3 119/5/3
f 122/5/3 120/5/3 121/5/3
f 125/5/3 124/5/3 123/5/3
f 126/5/3 124/5/3 125/5/3
f 127/5/3 125/5/3 123/5/3
f 129/5/3 127/5/3 123/5/3
f 129/5/3 128/5/3 127/5/3
f 130/5/3 128/5/3 129/5/3
f 133/5/3 132/5/3 131/5/3
f 134/5/3 132/5/3 133/5/3
f 135/5/3 133/5/3 131/5/3
f 137/5/3 135/5/3 131/5/3
f 137/5/3 136/5/3 135/5/3
f 138/5/3 136/5/3 137/5/3
f 139/5/4 140/5/4 141/5/4
f 141/5/4 140/5/4 142/5/4
f 139/5/4 141/5/4 143/5/4
f 139/5/4 143/5/4 145/5/4
f 143/5/4 144/5/4 145/5/4
f 145/5/4 144/5/4 146/5/4
f 147/5/4 148/5/4 149/5/4
f 149/5/4 148/5/4 150/5/4
f 147/5/4 149/5/4 151/5/4
f 147/5/4 151/5/4 153/5/4
f 151/5/4 152/5/4 153/5/4
f 153/5/4 152/5/4 154/5/4
f 155/5/4 156/5/4 157/5/4
f 157/5/4 156/5/4 158/5/4
f 159/1/4 160/1/4 162/1/4
f 162/1/4 160/1/4 163/1/4
f 161/5/4 162/5/4 164/5/4
f 162/5/4 163/5/4 164/5/4
f 164/5/4 163/5/4 165/5/4
f 161/5/4 164/5/4 166/5/4
f 164/4/4 165/4/4 166/4/4
f 165/5/4 163/5/4 167/5/4
f 166/4/4 165/4/4 167/4/4
f 163/1/4 160/1/4 168/1/4
f 161/5/4 166/5/4 170/5/4
f 166/5/4 167/5/4 170/5/4
f 167/5/4 163/5/4 171/5/4
f 170/5/4 167/5/4 171/5/4
f 168/1/4 169/1/4 172/1/4
f 171/5/4 163/5/4 172/5/4
f 163/1/4 168/1/4 172/1/4
f 172/1/4 169/1/4 173/1/4
f 173/1/4 169/1/4 174/1/4
f 171/1/4 172/1/4 175/1/4
f 172/2/4 173/2/4 175/2/4
f 173/3/4 174/3/4 176/3/4
f 175/2/4 173/2/4 176/2/4
f 174/1/4 169/1/4 177/1/4
f 176/3/4 174/3/4 177/3/4
f 175/1/4 176/1/4 178/1/4
f 176/1/4 177/1/4 178/1/4
f 177/1/4 169/1/4 179/1/4
f 178/1/4 177/1/4 179/1/4
f 175/1/4 178/1/4 181/1/4
f 171/1/4 175/1/4 181/1/4
f 181/1/4 178/1/4 182/1/4
f 178/3/4 179/3/4 183/3/4
f 182/1/4 178/1/4 183/1/4
f 179/1/4 169/1/4 184/1/4
f 183/3/4 179/3/4 184/3/4
f 181/5/4 182/5/4 185/5/4
f 180/5/4 181/5/4 185/5/4
f 185/5/4 182/5/4 186/5/4
f 182/1/4 183/1/4 187/1/4
f 183/1/4 184/1/4 187/1/4
f 184/1/4 169/1/4 188/1/4
f 187/1/4 184/1/4 188/1/4
f 185/4/4 186/4/4 189/4/4
f 180/5/4 185/5/4 189/5/4
f 186/5/4 182/5/4 190/5/4
f 189/4/4 186/4/4 190/4/4
f 180/5/4 189/5/4 191/5/4
f 189/5/4 190/5/4 191/5/4
f 190/5/4 182/5/4 192/5/4
f 191/5/4 190/5/4 192/5/4
f 182/1/4 187/1/4 193/1/4
f 192/5/4 182/5/4 193/5/4
f 187/3/4 188/3/4 194/3/4
f 193/1/4 187/1/4 194/1/4
f 188/1/4 169/1/4 195/1/4
f 194/3/4 188/3/4 195/3/4
f 193/1/4 194/1/4 196/1/4
f 194/1/4 195/1/4 196/1/4
f 192/1/4 193/1/4 196/1/4
f 195/1/4 169/1/4 197/1/4
f 196/1/4 195/1/4 197/1/4
f 202/5/5 199/5/5 198/5/5
f 203/5/5 199/5/5 202/5/5
f 204/5/5 201/5/5 200/5/5
f 205/5/5 201/5/5 204/5/5
f 210/5/5 207/5/5 206/5/5
f 211/5/5 207/5/5 210/5/5
f 212/5/5 209/5/5 208/5/5
f 213/5/5 209/5/5 212/5/5
f 218/5/5 215/5/5 214/5/5
f 219/5/5 217/5/5 216/5/5
f 220/5/5 218/5/5 214/5/5
f 220/5/5 219/5/5 218/5/5
f 221/5/5 217/5/5 219/5/5
f 221/5/5 219/5/5 220/5/5
f 222/5/5 220/5/5 214/5/5
f 223/5/5 220/5/5 222/5/5
f 224/5/5 217/5/5 221/5/5
f 225/5/5 217/5/5 224/5/5
f 232/1/5 227/1/5 226/1/5
f 235/1/5 229/1/5 228/1/5
f 236/1/5 229/1/5 235/1/5
f 239/1/5 231/1/5 230/1/5
f 240/1/5 237/1/5 236/1/5
f 240/1/5 235/1/5 234/1/5
f 240/1/5 236/1/5 235/1/5
f 241/1/5 237/1/5 240/1/5
f 244/1/5 233/1/5 232/1/5
f 244/1/5 232/1/5 226/1/5
f 245/1/5 233/1/5 244/1/5
f 246/1/5 243/1/5 242/1/5
f 247/1/5 243/1/5 246/1/5
f 248/1/5 243/1/5 247/1/5
f 249/1/5 243/1/5 248/1/5
f 250/1/5 239/1/5 238/1/5
f 251/1/5 231/1/5 239/1/5
f 251/1/5 239/1/5 250/1/5
f 252/1/5 244/1/5 226/1/5
f 253/1/5 244/1/5 252/1/5
f 254/1/5 248/1/5 247/1/5
f 255/1/5 248/1/5 254/1/5
f 256/1/5 231/1/5 251/1/5
f 257/1/5 231/1/5 256/1/5
f 258/1/6 259/1/6 260/1/6
f 258/1/6 260/1/6 261/1/6
f 258/1/6 261/1/6 262/1/6
f 262/1/6 261/1/6 263/1/6
f 264/1/6 265/1/6 266/1/6
f 266/1/6 265/1/6 267/1/6
