# MagicaVoxel @ Ephtracy

# group
o 

# material
mtllib tree.mtl
usemtl palette

# normals
vn -1 0 0
vn 1 0 0
vn 0 0 1
vn 0 0 -1
vn 0 -1 0
vn 0 1 0

# texcoords
vt 0.537109 0.5
vt 0.904297 0.5

# verts
v -1.4 0.8 1.1
v -1.4 0.8 0.7
v -1.4 0.9 1.2
v -1.4 0.9 1.1
v -1.4 0.9 0.7
v -1.4 0.9 0.6
v -1.4 1 1.2
v -1.4 1 1.1
v -1.4 1 0.7
v -1.4 1 0.6
v -1.4 1.1 1.1
v -1.4 1.1 1
v -1.4 1.1 0.8
v -1.4 1.1 0.7
v -1.4 1.2 1
v -1.4 1.2 0.8
v -1.3 0.8 1.2
v -1.3 0.8 1.1
v -1.3 0.8 0.7
v -1.3 0.8 0.6
v -1.3 0.9 1.2
v -1.3 0.9 1.1
v -1.3 0.9 0.7
v -1.3 0.9 0.6
v -1.3 1 1.2
v -1.3 1 1.1
v -1.3 1 0.7
v -1.3 1 0.6
v -1.3 1.1 1.2
v -1.3 1.1 1.1
v -1.3 1.1 1
v -1.3 1.1 0.8
v -1.3 1.1 0.7
v -1.3 1.1 0.6
v -1.3 1.2 1.1
v -1.3 1.2 1
v -1.3 1.2 0.8
v -1.3 1.2 0.7
v -1.2 0 1
v -1.2 0 0.8
v -1.2 0.8 1
v -1.2 0.8 0.8
v -1.2 1.1 1.2
v -1.2 1.1 1.1
v -1.2 1.1 0.7
v -1.2 1.1 0.6
v -1.2 1.2 1.2
v -1.2 1.2 1.1
v -1.2 1.2 0.7
v -1.2 1.2 0.6
v -1 0 1
v -1 0 0.8
v -1 0.8 1
v -1 0.8 0.8
v -1 1.1 1.2
v -1 1.1 1.1
v -1 1.1 0.7
v -1 1.1 0.6
v -1 1.2 1.2
v -1 1.2 1.1
v -1 1.2 0.7
v -1 1.2 0.6
v -0.9 0.8 1.2
v -0.9 0.8 1.1
v -0.9 0.8 0.7
v -0.9 0.8 0.6
v -0.9 0.9 1.2
v -0.9 0.9 1.1
v -0.9 0.9 0.7
v -0.9 0.9 0.6
v -0.9 1 1.2
v -0.9 1 1.1
v -0.9 1 0.7
v -0.9 1 0.6
v -0.9 1.1 1.2
v -0.9 1.1 1.1
v -0.9 1.1 1
v -0.9 1.1 0.8
v -0.9 1.1 0.7
v -0.9 1.1 0.6
v -0.9 1.2 1.1
v -0.9 1.2 1
v -0.9 1.2 0.8
v -0.9 1.2 0.7
v -0.8 0.8 1.1
v -0.8 0.8 0.7
v -0.8 0.9 1.2
v -0.8 0.9 1.1
v -0.8 0.9 0.7
v -0.8 0.9 0.6
v -0.8 1 1.2
v -0.8 1 1.1
v -0.8 1 0.7
v -0.8 1 0.6
v -0.8 1.1 1.1
v -0.8 1.1 1
v -0.8 1.1 0.8
v -0.8 1.1 0.7
v -0.8 1.2 1
v -0.8 1.2 0.8
v -1.4 0.9 1.2
v -1.4 1 1.2
v -1.3 0.8 1.2
v -1.3 0.9 1.2
v -1.3 1 1.2
v -1.3 1.1 1.2
v -1.2 1.1 1.2
v -1.2 1.2 1.2
v -1 1.1 1.2
v -1 1.2 1.2
v -0.9 0.8 1.2
v -0.9 0.9 1.2
v -0.9 1 1.2
v -0.9 1.1 1.2
v -0.8 0.9 1.2
v -0.8 1 1.2
v -1.4 0.8 1.1
v -1.4 0.9 1.1
v -1.4 1 1.1
v -1.4 1.1 1.1
v -1.3 0.8 1.1
v -1.3 0.9 1.1
v -1.3 1 1.1
v -1.3 1.1 1.1
v -1.3 1.2 1.1
v -1.2 1.1 1.1
v -1.2 1.2 1.1
v -1 1.1 1.1
v -1 1.2 1.1
v -0.9 0.8 1.1
v -0.9 0.9 1.1
v -0.9 1 1.1
v -0.9 1.1 1.1
v -0.9 1.2 1.1
v -0.8 0.8 1.1
v -0.8 0.9 1.1
v -0.8 1 1.1
v -0.8 1.1 1.1
v -1.4 1.1 1
v -1.4 1.2 1
v -1.3 1.1 1
v -1.3 1.2 1
v -1.2 0 1
v -1.2 0.8 1
v -1 0 1
v -1 0.8 1
v -0.9 1.1 1
v -0.9 1.2 1
v -0.8 1.1 1
v -0.8 1.2 1
v -1.4 1.1 0.8
v -1.4 1.2 0.8
v -1.3 1.1 0.8
v -1.3 1.2 0.8
v -1.2 0 0.8
v -1.2 0.8 0.8
v -1 0 0.8
v -1 0.8 0.8
v -0.9 1.1 0.8
v -0.9 1.2 0.8
v -0.8 1.1 0.8
v -0.8 1.2 0.8
v -1.4 0.8 0.7
v -1.4 0.9 0.7
v -1.4 1 0.7
v -1.4 1.1 0.7
v -1.3 0.8 0.7
v -1.3 0.9 0.7
v -1.3 1 0.7
v -1.3 1.1 0.7
v -1.3 1.2 0.7
v -1.2 1.1 0.7
v -1.2 1.2 0.7
v -1 1.1 0.7
v -1 1.2 0.7
v -0.9 0.8 0.7
v -0.9 0.9 0.7
v -0.9 1 0.7
v -0.9 1.1 0.7
v -0.9 1.2 0.7
v -0.8 0.8 0.7
v -0.8 0.9 0.7
v -0.8 1 0.7
v -0.8 1.1 0.7
v -1.4 0.9 0.6
v -1.4 1 0.6
v -1.3 0.8 0.6
v -1.3 0.9 0.6
v -1.3 1 0.6
v -1.3 1.1 0.6
v -1.2 1.1 0.6
v -1.2 1.2 0.6
v -1 1.1 0.6
v -1 1.2 0.6
v -0.9 0.8 0.6
v -0.9 0.9 0.6
v -0.9 1 0.6
v -0.9 1.1 0.6
v -0.8 0.9 0.6
v -0.8 1 0.6
v -1.2 0 1
v -1 0 1
v -1.2 0 0.8
v -1 0 0.8
v -1.3 0.8 1.2
v -0.9 0.8 1.2
v -1.4 0.8 1.1
v -1.3 0.8 1.1
v -0.9 0.8 1.1
v -0.8 0.8 1.1
v -1.2 0.8 1
v -1 0.8 1
v -1.2 0.8 0.8
v -1 0.8 0.8
v -1.4 0.8 0.7
v -1.3 0.8 0.7
v -0.9 0.8 0.7
v -0.8 0.8 0.7
v -1.3 0.8 0.6
v -0.9 0.8 0.6
v -1.4 0.9 1.2
v -1.3 0.9 1.2
v -0.9 0.9 1.2
v -0.8 0.9 1.2
v -1.4 0.9 1.1
v -1.3 0.9 1.1
v -0.9 0.9 1.1
v -0.8 0.9 1.1
v -1.4 0.9 0.7
v -1.3 0.9 0.7
v -0.9 0.9 0.7
v -0.8 0.9 0.7
v -1.4 0.9 0.6
v -1.3 0.9 0.6
v -0.9 0.9 0.6
v -0.8 0.9 0.6
v -1.4 1 1.2
v -1.3 1 1.2
v -0.9 1 1.2
v -0.8 1 1.2
v -1.4 1 1.1
v -1.3 1 1.1
v -0.9 1 1.1
v -0.8 1 1.1
v -1.4 1 0.7
v -1.3 1 0.7
v -0.9 1 0.7
v -0.8 1 0.7
v -1.4 1 0.6
v -1.3 1 0.6
v -0.9 1 0.6
v -0.8 1 0.6
v -1.3 1.1 1.2
v -1.2 1.1 1.2
v -1 1.1 1.2
v -0.9 1.1 1.2
v -1.4 1.1 1.1
v -1.3 1.1 1.1
v -1.2 1.1 1.1
v -1 1.1 1.1
v -0.9 1.1 1.1
v -0.8 1.1 1.1
v -1.4 1.1 1
v -1.3 1.1 1
v -0.9 1.1 1
v -0.8 1.1 1
v -1.4 1.1 0.8
v -1.3 1.1 0.8
v -0.9 1.1 0.8
v -0.8 1.1 0.8
v -1.4 1.1 0.7
v -1.3 1.1 0.7
v -1.2 1.1 0.7
v -1 1.1 0.7
v -0.9 1.1 0.7
v -0.8 1.1 0.7
v -1.3 1.1 0.6
v -1.2 1.1 0.6
v -1 1.1 0.6
v -0.9 1.1 0.6
v -1.2 1.2 1.2
v -1 1.2 1.2
v -1.3 1.2 1.1
v -1.2 1.2 1.1
v -1 1.2 1.1
v -0.9 1.2 1.1
v -1.4 1.2 1
v -1.3 1.2 1
v -0.9 1.2 1
v -0.8 1.2 1
v -1.4 1.2 0.8
v -1.3 1.2 0.8
v -0.9 1.2 0.8
v -0.8 1.2 0.8
v -1.3 1.2 0.7
v -1.2 1.2 0.7
v -1 1.2 0.7
v -0.9 1.2 0.7
v -1.2 1.2 0.6
v -1 1.2 0.6

# faces
f 4/2/1 2/2/1 1/2/1
f 5/2/1 2/2/1 4/2/1
f 7/2/1 4/2/1 3/2/1
f 7/2/1 6/2/1 5/2/1
f 7/2/1 5/2/1 4/2/1
f 8/2/1 6/2/1 7/2/1
f 9/2/1 6/2/1 8/2/1
f 10/2/1 6/2/1 9/2/1
f 11/2/1 9/2/1 8/2/1
f 12/2/1 9/2/1 11/2/1
f 13/2/1 9/2/1 12/2/1
f 14/2/1 9/2/1 13/2/1
f 15/2/1 13/2/1 12/2/1
f 16/2/1 13/2/1 15/2/1
f 21/2/1 18/2/1 17/2/1
f 22/2/1 18/2/1 21/2/1
f 23/2/1 20/2/1 19/2/1
f 24/2/1 20/2/1 23/2/1
f 29/2/1 26/2/1 25/2/1
f 30/2/1 26/2/1 29/2/1
f 33/2/1 28/2/1 27/2/1
f 34/2/1 28/2/1 33/2/1
f 35/2/1 31/2/1 30/2/1
f 36/2/1 31/2/1 35/2/1
f 37/2/1 33/2/1 32/2/1
f 38/2/1 33/2/1 37/2/1
f 41/1/1 40/1/1 39/1/1
f 42/1/1 40/1/1 41/1/1
f 47/2/1 44/2/1 43/2/1
f 48/2/1 44/2/1 47/2/1
f 49/2/1 46/2/1 45/2/1
f 50/2/1 46/2/1 49/2/1
f 51/1/2 52/1/2 53/1/2
f 53/1/2 52/1/2 54/1/2
f 55/2/2 56/2/2 59/2/2
f 59/2/2 56/2/2 60/2/2
f 57/2/2 58/2/2 61/2/2
f 61/2/2 58/2/2 62/2/2
f 63/2/2 64/2/2 67/2/2
f 67/2/2 64/2/2 68/2/2
f 65/2/2 66/2/2 69/2/2
f 69/2/2 66/2/2 70/2/2
f 71/2/2 72/2/2 75/2/2
f 75/2/2 72/2/2 76/2/2
f 73/2/2 74/2/2 79/2/2
f 79/2/2 74/2/2 80/2/2
f 76/2/2 77/2/2 81/2/2
f 81/2/2 77/2/2 82/2/2
f 78/2/2 79/2/2 83/2/2
f 83/2/2 79/2/2 84/2/2
f 85/2/2 86/2/2 88/2/2
f 88/2/2 86/2/2 89/2/2
f 87/2/2 88/2/2 91/2/2
f 89/2/2 90/2/2 91/2/2
f 88/2/2 89/2/2 91/2/2
f 91/2/2 90/2/2 92/2/2
f 92/2/2 90/2/2 93/2/2
f 93/2/2 90/2/2 94/2/2
f 92/2/2 93/2/2 95/2/2
f 95/2/2 93/2/2 96/2/2
f 96/2/2 93/2/2 97/2/2
f 97/2/2 93/2/2 98/2/2
f 96/2/2 97/2/2 99/2/2
f 99/2/2 97/2/2 100/2/2
f 104/2/3 102/2/3 101/2/3
f 105/2/3 102/2/3 104/2/3
f 107/2/3 104/2/3 103/2/3
f 107/2/3 106/2/3 105/2/3
f 107/2/3 105/2/3 104/2/3
f 109/2/3 107/2/3 103/2/3
f 109/2/3 108/2/3 107/2/3
f 110/2/3 108/2/3 109/2/3
f 111/2/3 109/2/3 103/2/3
f 112/2/3 109/2/3 111/2/3
f 113/2/3 109/2/3 112/2/3
f 114/2/3 109/2/3 113/2/3
f 115/2/3 113/2/3 112/2/3
f 116/2/3 113/2/3 115/2/3
f 121/2/3 118/2/3 117/2/3
f 122/2/3 118/2/3 121/2/3
f 123/2/3 120/2/3 119/2/3
f 124/2/3 120/2/3 123/2/3
f 126/2/3 125/2/3 124/2/3
f 127/2/3 125/2/3 126/2/3
f 133/2/3 129/2/3 128/2/3
f 134/2/3 129/2/3 133/2/3
f 135/2/3 131/2/3 130/2/3
f 136/2/3 131/2/3 135/2/3
f 137/2/3 133/2/3 132/2/3
f 138/2/3 133/2/3 137/2/3
f 141/2/3 140/2/3 139/2/3
f 142/2/3 140/2/3 141/2/3
f 145/1/3 144/1/3 143/1/3
f 146/1/3 144/1/3 145/1/3
f 149/2/3 148/2/3 147/2/3
f 150/2/3 148/2/3 149/2/3
f 151/2/4 152/2/4 153/2/4
f 153/2/4 152/2/4 154/2/4
f 155/1/4 156/1/4 157/1/4
f 157/1/4 156/1/4 158/1/4
f 159/2/4 160/2/4 161/2/4
f 161/2/4 160/2/4 162/2/4
f 163/2/4 164/2/4 167/2/4
f 167/2/4 164/2/4 168/2/4
f 165/2/4 166/2/4 169/2/4
f 169/2/4 166/2/4 170/2/4
f 170/2/4 171/2/4 172/2/4
f 172/2/4 171/2/4 173/2/4
f 174/2/4 175/2/4 179/2/4
f 179/2/4 175/2/4 180/2/4
f 176/2/4 177/2/4 181/2/4
f 181/2/4 177/2/4 182/2/4
f 178/2/4 179/2/4 183/2/4
f 183/2/4 179/2/4 184/2/4
f 185/2/4 186/2/4 188/2/4
f 188/2/4 186/2/4 189/2/4
f 187/2/4 188/2/4 191/2/4
f 189/2/4 190/2/4 191/2/4
f 188/2/4 189/2/4 191/2/4
f 187/2/4 191/2/4 193/2/4
f 191/2/4 192/2/4 193/2/4
f 193/2/4 192/2/4 194/2/4
f 187/2/4 193/2/4 195/2/4
f 195/2/4 193/2/4 196/2/4
f 196/2/4 193/2/4 197/2/4
f 197/2/4 193/2/4 198/2/4
f 196/2/4 197/2/4 199/2/4
f 199/2/4 197/2/4 200/2/4
f 203/1/5 202/1/5 201/1/5
f 204/1/5 202/1/5 203/1/5
f 208/2/5 206/2/5 205/2/5
f 209/2/5 206/2/5 208/2/5
f 211/2/5 208/2/5 207/2/5
f 211/2/5 210/2/5 209/2/5
f 211/2/5 209/2/5 208/2/5
f 212/2/5 210/2/5 211/2/5
f 213/2/5 211/2/5 207/2/5
f 214/2/5 210/2/5 212/2/5
f 215/2/5 213/2/5 207/2/5
f 215/2/5 214/2/5 213/2/5
f 216/2/5 214/2/5 215/2/5
f 217/2/5 210/2/5 214/2/5
f 217/2/5 214/2/5 216/2/5
f 218/2/5 210/2/5 217/2/5
f 219/2/5 217/2/5 216/2/5
f 220/2/5 217/2/5 219/2/5
f 225/2/5 222/2/5 221/2/5
f 226/2/5 222/2/5 225/2/5
f 227/2/5 224/2/5 223/2/5
f 228/2/5 224/2/5 227/2/5
f 233/2/5 230/2/5 229/2/5
f 234/2/5 230/2/5 233/2/5
f 235/2/5 232/2/5 231/2/5
f 236/2/5 232/2/5 235/2/5
f 237/2/6 238/2/6 241/2/6
f 241/2/6 238/2/6 242/2/6
f 239/2/6 240/2/6 243/2/6
f 243/2/6 240/2/6 244/2/6
f 245/2/6 246/2/6 249/2/6
f 249/2/6 246/2/6 250/2/6
f 247/2/6 248/2/6 251/2/6
f 251/2/6 248/2/6 252/2/6
f 253/2/6 254/2/6 258/2/6
f 258/2/6 254/2/6 259/2/6
f 255/2/6 256/2/6 260/2/6
f 260/2/6 256/2/6 261/2/6
f 257/2/6 258/2/6 263/2/6
f 263/2/6 258/2/6 264/2/6
f 261/2/6 262/2/6 265/2/6
f 265/2/6 262/2/6 266/2/6
f 267/2/6 268/2/6 271/2/6
f 271/2/6 268/2/6 272/2/6
f 269/2/6 270/2/6 275/2/6
f 275/2/6 270/2/6 276/2/6
f 272/2/6 273/2/6 277/2/6
f 277/2/6 273/2/6 278/2/6
f 274/2/6 275/2/6 279/2/6
f 279/2/6 275/2/6 280/2/6
f 281/2/6 282/2/6 284/2/6
f 284/2/6 282/2/6 285/2/6
f 283/2/6 284/2/6 288/2/6
f 285/2/6 286/2/6 288/2/6
f 284/2/6 285/2/6 288/2/6
f 288/2/6 286/2/6 289/2/6
f 287/2/6 288/2/6 291/2/6
f 289/2/6 290/2/6 291/2/6
f 288/2/6 289/2/6 291/2/6
f 291/2/6 290/2/6 292/2/6
f 292/2/6 290/2/6 293/2/6
f 293/2/6 290/2/6 294/2/6
f 292/2/6 293/2/6 295/2/6
f 295/2/6 293/2/6 296/2/6
f 296/2/6 293/2/6 297/2/6
f 297/2/6 293/2/6 298/2/6
f 296/2/6 297/2/6 299/2/6
f 299/2/6 297/2/6 300/2/6
